<mxfile host="app.diagrams.net" agent="Mozilla/5.0 (Windows NT 10.0; Win64; x64) AppleWebKit/537.36 (KHTML, like Gecko) Chrome/131.0.0.0 Safari/537.36" version="25.0.3">
  <diagram id="C5RBs43oDa-KdzZeNtuy" name="Page-1">
    <mxGraphModel dx="1034" dy="412" grid="1" gridSize="10" guides="1" tooltips="1" connect="1" arrows="1" fold="1" page="1" pageScale="1" pageWidth="827" pageHeight="1169" math="0" shadow="0">
      <root>
        <mxCell id="WIyWlLk6GJQsqaUBKTNV-0" />
        <mxCell id="WIyWlLk6GJQsqaUBKTNV-1" parent="WIyWlLk6GJQsqaUBKTNV-0" />
        <mxCell id="SWUT7TAXa4WQA7VOHfOn-55" value="" style="edgeStyle=orthogonalEdgeStyle;rounded=0;orthogonalLoop=1;jettySize=auto;html=1;" edge="1" parent="WIyWlLk6GJQsqaUBKTNV-1" source="SWUT7TAXa4WQA7VOHfOn-53" target="SWUT7TAXa4WQA7VOHfOn-54">
          <mxGeometry relative="1" as="geometry" />
        </mxCell>
        <mxCell id="SWUT7TAXa4WQA7VOHfOn-53" value="Start the Game" style="whiteSpace=wrap;html=1;aspect=fixed;" vertex="1" parent="WIyWlLk6GJQsqaUBKTNV-1">
          <mxGeometry x="70" y="80" width="80" height="80" as="geometry" />
        </mxCell>
        <mxCell id="SWUT7TAXa4WQA7VOHfOn-57" value="" style="edgeStyle=orthogonalEdgeStyle;rounded=0;orthogonalLoop=1;jettySize=auto;html=1;" edge="1" parent="WIyWlLk6GJQsqaUBKTNV-1" source="SWUT7TAXa4WQA7VOHfOn-54" target="SWUT7TAXa4WQA7VOHfOn-56">
          <mxGeometry relative="1" as="geometry" />
        </mxCell>
        <mxCell id="SWUT7TAXa4WQA7VOHfOn-54" value="Load into the instruction screen" style="whiteSpace=wrap;html=1;aspect=fixed;" vertex="1" parent="WIyWlLk6GJQsqaUBKTNV-1">
          <mxGeometry x="230" y="80" width="80" height="80" as="geometry" />
        </mxCell>
        <mxCell id="SWUT7TAXa4WQA7VOHfOn-59" value="" style="edgeStyle=orthogonalEdgeStyle;rounded=0;orthogonalLoop=1;jettySize=auto;html=1;" edge="1" parent="WIyWlLk6GJQsqaUBKTNV-1" source="SWUT7TAXa4WQA7VOHfOn-56" target="SWUT7TAXa4WQA7VOHfOn-58">
          <mxGeometry relative="1" as="geometry" />
        </mxCell>
        <mxCell id="SWUT7TAXa4WQA7VOHfOn-56" value="Get into the game as Peter" style="whiteSpace=wrap;html=1;aspect=fixed;" vertex="1" parent="WIyWlLk6GJQsqaUBKTNV-1">
          <mxGeometry x="390" y="80" width="80" height="80" as="geometry" />
        </mxCell>
        <mxCell id="SWUT7TAXa4WQA7VOHfOn-61" value="" style="edgeStyle=orthogonalEdgeStyle;rounded=0;orthogonalLoop=1;jettySize=auto;html=1;" edge="1" parent="WIyWlLk6GJQsqaUBKTNV-1" source="SWUT7TAXa4WQA7VOHfOn-58" target="SWUT7TAXa4WQA7VOHfOn-60">
          <mxGeometry relative="1" as="geometry" />
        </mxCell>
        <mxCell id="SWUT7TAXa4WQA7VOHfOn-70" value="hit" style="edgeLabel;html=1;align=center;verticalAlign=middle;resizable=0;points=[];" vertex="1" connectable="0" parent="SWUT7TAXa4WQA7VOHfOn-61">
          <mxGeometry x="-0.2083" y="2" relative="1" as="geometry">
            <mxPoint as="offset" />
          </mxGeometry>
        </mxCell>
        <mxCell id="SWUT7TAXa4WQA7VOHfOn-63" value="" style="edgeStyle=orthogonalEdgeStyle;rounded=0;orthogonalLoop=1;jettySize=auto;html=1;" edge="1" parent="WIyWlLk6GJQsqaUBKTNV-1" source="SWUT7TAXa4WQA7VOHfOn-58" target="SWUT7TAXa4WQA7VOHfOn-62">
          <mxGeometry relative="1" as="geometry" />
        </mxCell>
        <mxCell id="SWUT7TAXa4WQA7VOHfOn-69" value="miss" style="edgeLabel;html=1;align=center;verticalAlign=middle;resizable=0;points=[];" vertex="1" connectable="0" parent="SWUT7TAXa4WQA7VOHfOn-63">
          <mxGeometry x="0.0333" y="2" relative="1" as="geometry">
            <mxPoint as="offset" />
          </mxGeometry>
        </mxCell>
        <mxCell id="SWUT7TAXa4WQA7VOHfOn-58" value="Attack the first enemy" style="whiteSpace=wrap;html=1;aspect=fixed;" vertex="1" parent="WIyWlLk6GJQsqaUBKTNV-1">
          <mxGeometry x="390" y="240" width="80" height="80" as="geometry" />
        </mxCell>
        <mxCell id="SWUT7TAXa4WQA7VOHfOn-83" value="" style="edgeStyle=orthogonalEdgeStyle;rounded=0;orthogonalLoop=1;jettySize=auto;html=1;" edge="1" parent="WIyWlLk6GJQsqaUBKTNV-1" source="SWUT7TAXa4WQA7VOHfOn-60" target="SWUT7TAXa4WQA7VOHfOn-82">
          <mxGeometry relative="1" as="geometry" />
        </mxCell>
        <mxCell id="SWUT7TAXa4WQA7VOHfOn-84" value="continue attacking" style="edgeLabel;html=1;align=center;verticalAlign=middle;resizable=0;points=[];" vertex="1" connectable="0" parent="SWUT7TAXa4WQA7VOHfOn-83">
          <mxGeometry x="-0.3133" relative="1" as="geometry">
            <mxPoint as="offset" />
          </mxGeometry>
        </mxCell>
        <mxCell id="SWUT7TAXa4WQA7VOHfOn-86" style="edgeStyle=orthogonalEdgeStyle;rounded=0;orthogonalLoop=1;jettySize=auto;html=1;exitX=0.5;exitY=1;exitDx=0;exitDy=0;entryX=0.561;entryY=0.039;entryDx=0;entryDy=0;entryPerimeter=0;" edge="1" parent="WIyWlLk6GJQsqaUBKTNV-1" source="SWUT7TAXa4WQA7VOHfOn-60" target="SWUT7TAXa4WQA7VOHfOn-87">
          <mxGeometry relative="1" as="geometry">
            <mxPoint x="500" y="580" as="targetPoint" />
            <Array as="points">
              <mxPoint x="470" y="480" />
              <mxPoint x="470" y="550" />
              <mxPoint x="501" y="550" />
              <mxPoint x="501" y="587" />
            </Array>
          </mxGeometry>
        </mxCell>
        <mxCell id="SWUT7TAXa4WQA7VOHfOn-88" value="focus on objectives" style="edgeLabel;html=1;align=center;verticalAlign=middle;resizable=0;points=[];" vertex="1" connectable="0" parent="SWUT7TAXa4WQA7VOHfOn-86">
          <mxGeometry x="-0.2766" y="-1" relative="1" as="geometry">
            <mxPoint as="offset" />
          </mxGeometry>
        </mxCell>
        <mxCell id="SWUT7TAXa4WQA7VOHfOn-60" value="kill them" style="rhombus;whiteSpace=wrap;html=1;" vertex="1" parent="WIyWlLk6GJQsqaUBKTNV-1">
          <mxGeometry x="390" y="400" width="80" height="80" as="geometry" />
        </mxCell>
        <mxCell id="SWUT7TAXa4WQA7VOHfOn-65" value="" style="edgeStyle=orthogonalEdgeStyle;rounded=0;orthogonalLoop=1;jettySize=auto;html=1;" edge="1" parent="WIyWlLk6GJQsqaUBKTNV-1" source="SWUT7TAXa4WQA7VOHfOn-62" target="SWUT7TAXa4WQA7VOHfOn-64">
          <mxGeometry relative="1" as="geometry" />
        </mxCell>
        <mxCell id="SWUT7TAXa4WQA7VOHfOn-62" value="lose life" style="rhombus;whiteSpace=wrap;html=1;" vertex="1" parent="WIyWlLk6GJQsqaUBKTNV-1">
          <mxGeometry x="230" y="240" width="80" height="80" as="geometry" />
        </mxCell>
        <mxCell id="SWUT7TAXa4WQA7VOHfOn-66" value="" style="edgeStyle=orthogonalEdgeStyle;rounded=0;orthogonalLoop=1;jettySize=auto;html=1;" edge="1" parent="WIyWlLk6GJQsqaUBKTNV-1" source="SWUT7TAXa4WQA7VOHfOn-64" target="SWUT7TAXa4WQA7VOHfOn-60">
          <mxGeometry relative="1" as="geometry" />
        </mxCell>
        <mxCell id="SWUT7TAXa4WQA7VOHfOn-72" value="hit" style="edgeLabel;html=1;align=center;verticalAlign=middle;resizable=0;points=[];" vertex="1" connectable="0" parent="SWUT7TAXa4WQA7VOHfOn-66">
          <mxGeometry x="0.0222" y="1" relative="1" as="geometry">
            <mxPoint as="offset" />
          </mxGeometry>
        </mxCell>
        <mxCell id="SWUT7TAXa4WQA7VOHfOn-68" value="" style="edgeStyle=orthogonalEdgeStyle;rounded=0;orthogonalLoop=1;jettySize=auto;html=1;" edge="1" parent="WIyWlLk6GJQsqaUBKTNV-1" source="SWUT7TAXa4WQA7VOHfOn-64" target="SWUT7TAXa4WQA7VOHfOn-67">
          <mxGeometry relative="1" as="geometry" />
        </mxCell>
        <mxCell id="SWUT7TAXa4WQA7VOHfOn-71" value="miss" style="edgeLabel;html=1;align=center;verticalAlign=middle;resizable=0;points=[];" vertex="1" connectable="0" parent="SWUT7TAXa4WQA7VOHfOn-68">
          <mxGeometry x="-0.0095" y="2" relative="1" as="geometry">
            <mxPoint as="offset" />
          </mxGeometry>
        </mxCell>
        <mxCell id="SWUT7TAXa4WQA7VOHfOn-64" value="Attack them again" style="whiteSpace=wrap;html=1;" vertex="1" parent="WIyWlLk6GJQsqaUBKTNV-1">
          <mxGeometry x="210" y="410" width="120" height="60" as="geometry" />
        </mxCell>
        <mxCell id="SWUT7TAXa4WQA7VOHfOn-74" value="" style="edgeStyle=orthogonalEdgeStyle;rounded=0;orthogonalLoop=1;jettySize=auto;html=1;" edge="1" parent="WIyWlLk6GJQsqaUBKTNV-1" source="SWUT7TAXa4WQA7VOHfOn-67" target="SWUT7TAXa4WQA7VOHfOn-73">
          <mxGeometry relative="1" as="geometry" />
        </mxCell>
        <mxCell id="SWUT7TAXa4WQA7VOHfOn-67" value="lose life" style="rhombus;whiteSpace=wrap;html=1;" vertex="1" parent="WIyWlLk6GJQsqaUBKTNV-1">
          <mxGeometry x="230" y="540" width="80" height="80" as="geometry" />
        </mxCell>
        <mxCell id="SWUT7TAXa4WQA7VOHfOn-76" value="" style="edgeStyle=orthogonalEdgeStyle;rounded=0;orthogonalLoop=1;jettySize=auto;html=1;" edge="1" parent="WIyWlLk6GJQsqaUBKTNV-1" source="SWUT7TAXa4WQA7VOHfOn-73" target="SWUT7TAXa4WQA7VOHfOn-75">
          <mxGeometry relative="1" as="geometry" />
        </mxCell>
        <mxCell id="SWUT7TAXa4WQA7VOHfOn-77" value="miss" style="edgeLabel;html=1;align=center;verticalAlign=middle;resizable=0;points=[];" vertex="1" connectable="0" parent="SWUT7TAXa4WQA7VOHfOn-76">
          <mxGeometry x="-0.0381" y="-1" relative="1" as="geometry">
            <mxPoint as="offset" />
          </mxGeometry>
        </mxCell>
        <mxCell id="SWUT7TAXa4WQA7VOHfOn-81" style="edgeStyle=orthogonalEdgeStyle;rounded=0;orthogonalLoop=1;jettySize=auto;html=1;exitX=1;exitY=0.5;exitDx=0;exitDy=0;entryX=0;entryY=1;entryDx=0;entryDy=0;" edge="1" parent="WIyWlLk6GJQsqaUBKTNV-1" source="SWUT7TAXa4WQA7VOHfOn-73" target="SWUT7TAXa4WQA7VOHfOn-60">
          <mxGeometry relative="1" as="geometry" />
        </mxCell>
        <mxCell id="SWUT7TAXa4WQA7VOHfOn-73" value="Attack them third time" style="whiteSpace=wrap;html=1;" vertex="1" parent="WIyWlLk6GJQsqaUBKTNV-1">
          <mxGeometry x="210" y="710" width="120" height="60" as="geometry" />
        </mxCell>
        <mxCell id="SWUT7TAXa4WQA7VOHfOn-78" style="edgeStyle=orthogonalEdgeStyle;rounded=0;orthogonalLoop=1;jettySize=auto;html=1;" edge="1" parent="WIyWlLk6GJQsqaUBKTNV-1" source="SWUT7TAXa4WQA7VOHfOn-75">
          <mxGeometry relative="1" as="geometry">
            <mxPoint x="160" y="260" as="targetPoint" />
          </mxGeometry>
        </mxCell>
        <mxCell id="SWUT7TAXa4WQA7VOHfOn-75" value="die" style="rhombus;whiteSpace=wrap;html=1;" vertex="1" parent="WIyWlLk6GJQsqaUBKTNV-1">
          <mxGeometry x="230" y="840" width="80" height="80" as="geometry" />
        </mxCell>
        <mxCell id="SWUT7TAXa4WQA7VOHfOn-79" value="restart game" style="rounded=0;whiteSpace=wrap;html=1;" vertex="1" parent="WIyWlLk6GJQsqaUBKTNV-1">
          <mxGeometry x="100" y="200" width="120" height="60" as="geometry" />
        </mxCell>
        <mxCell id="SWUT7TAXa4WQA7VOHfOn-80" style="edgeStyle=orthogonalEdgeStyle;rounded=0;orthogonalLoop=1;jettySize=auto;html=1;exitX=1;exitY=0.5;exitDx=0;exitDy=0;entryX=0.15;entryY=0.925;entryDx=0;entryDy=0;entryPerimeter=0;" edge="1" parent="WIyWlLk6GJQsqaUBKTNV-1" source="SWUT7TAXa4WQA7VOHfOn-79" target="SWUT7TAXa4WQA7VOHfOn-56">
          <mxGeometry relative="1" as="geometry" />
        </mxCell>
        <mxCell id="SWUT7TAXa4WQA7VOHfOn-90" value="" style="edgeStyle=orthogonalEdgeStyle;rounded=0;orthogonalLoop=1;jettySize=auto;html=1;" edge="1" parent="WIyWlLk6GJQsqaUBKTNV-1" source="SWUT7TAXa4WQA7VOHfOn-82" target="SWUT7TAXa4WQA7VOHfOn-89">
          <mxGeometry relative="1" as="geometry" />
        </mxCell>
        <mxCell id="SWUT7TAXa4WQA7VOHfOn-91" value="hit" style="edgeLabel;html=1;align=center;verticalAlign=middle;resizable=0;points=[];" vertex="1" connectable="0" parent="SWUT7TAXa4WQA7VOHfOn-90">
          <mxGeometry x="-0.4857" relative="1" as="geometry">
            <mxPoint as="offset" />
          </mxGeometry>
        </mxCell>
        <mxCell id="SWUT7TAXa4WQA7VOHfOn-105" style="edgeStyle=orthogonalEdgeStyle;rounded=0;orthogonalLoop=1;jettySize=auto;html=1;" edge="1" parent="WIyWlLk6GJQsqaUBKTNV-1" source="SWUT7TAXa4WQA7VOHfOn-82" target="SWUT7TAXa4WQA7VOHfOn-94">
          <mxGeometry relative="1" as="geometry" />
        </mxCell>
        <mxCell id="SWUT7TAXa4WQA7VOHfOn-106" value="miss" style="edgeLabel;html=1;align=center;verticalAlign=middle;resizable=0;points=[];" vertex="1" connectable="0" parent="SWUT7TAXa4WQA7VOHfOn-105">
          <mxGeometry x="0.3917" relative="1" as="geometry">
            <mxPoint as="offset" />
          </mxGeometry>
        </mxCell>
        <mxCell id="SWUT7TAXa4WQA7VOHfOn-82" value="Attack the second solder" style="whiteSpace=wrap;html=1;" vertex="1" parent="WIyWlLk6GJQsqaUBKTNV-1">
          <mxGeometry x="560" y="490" width="120" height="60" as="geometry" />
        </mxCell>
        <mxCell id="SWUT7TAXa4WQA7VOHfOn-118" style="edgeStyle=orthogonalEdgeStyle;rounded=0;orthogonalLoop=1;jettySize=auto;html=1;exitX=0.5;exitY=1;exitDx=0;exitDy=0;entryX=0.25;entryY=0;entryDx=0;entryDy=0;" edge="1" parent="WIyWlLk6GJQsqaUBKTNV-1" source="SWUT7TAXa4WQA7VOHfOn-87" target="SWUT7TAXa4WQA7VOHfOn-116">
          <mxGeometry relative="1" as="geometry" />
        </mxCell>
        <mxCell id="SWUT7TAXa4WQA7VOHfOn-87" value="collect the first Petorian flag" style="rounded=0;whiteSpace=wrap;html=1;" vertex="1" parent="WIyWlLk6GJQsqaUBKTNV-1">
          <mxGeometry x="430" y="585" width="120" height="60" as="geometry" />
        </mxCell>
        <mxCell id="SWUT7TAXa4WQA7VOHfOn-113" style="edgeStyle=orthogonalEdgeStyle;rounded=0;orthogonalLoop=1;jettySize=auto;html=1;" edge="1" parent="WIyWlLk6GJQsqaUBKTNV-1" source="SWUT7TAXa4WQA7VOHfOn-89" target="SWUT7TAXa4WQA7VOHfOn-87">
          <mxGeometry relative="1" as="geometry" />
        </mxCell>
        <mxCell id="SWUT7TAXa4WQA7VOHfOn-117" value="" style="edgeStyle=orthogonalEdgeStyle;rounded=0;orthogonalLoop=1;jettySize=auto;html=1;" edge="1" parent="WIyWlLk6GJQsqaUBKTNV-1" source="SWUT7TAXa4WQA7VOHfOn-89" target="SWUT7TAXa4WQA7VOHfOn-116">
          <mxGeometry relative="1" as="geometry" />
        </mxCell>
        <mxCell id="SWUT7TAXa4WQA7VOHfOn-89" value="kill them" style="rhombus;whiteSpace=wrap;html=1;" vertex="1" parent="WIyWlLk6GJQsqaUBKTNV-1">
          <mxGeometry x="580" y="620" width="80" height="80" as="geometry" />
        </mxCell>
        <mxCell id="SWUT7TAXa4WQA7VOHfOn-93" value="" style="edgeStyle=orthogonalEdgeStyle;rounded=0;orthogonalLoop=1;jettySize=auto;html=1;" edge="1" parent="WIyWlLk6GJQsqaUBKTNV-1" source="SWUT7TAXa4WQA7VOHfOn-94" target="SWUT7TAXa4WQA7VOHfOn-98">
          <mxGeometry relative="1" as="geometry" />
        </mxCell>
        <mxCell id="SWUT7TAXa4WQA7VOHfOn-94" value="lose life" style="rhombus;whiteSpace=wrap;html=1;" vertex="1" parent="WIyWlLk6GJQsqaUBKTNV-1">
          <mxGeometry x="760" y="480" width="80" height="80" as="geometry" />
        </mxCell>
        <mxCell id="SWUT7TAXa4WQA7VOHfOn-96" value="" style="edgeStyle=orthogonalEdgeStyle;rounded=0;orthogonalLoop=1;jettySize=auto;html=1;" edge="1" parent="WIyWlLk6GJQsqaUBKTNV-1" source="SWUT7TAXa4WQA7VOHfOn-98" target="SWUT7TAXa4WQA7VOHfOn-100">
          <mxGeometry relative="1" as="geometry" />
        </mxCell>
        <mxCell id="SWUT7TAXa4WQA7VOHfOn-97" value="miss" style="edgeLabel;html=1;align=center;verticalAlign=middle;resizable=0;points=[];" vertex="1" connectable="0" parent="SWUT7TAXa4WQA7VOHfOn-96">
          <mxGeometry x="-0.0095" y="2" relative="1" as="geometry">
            <mxPoint as="offset" />
          </mxGeometry>
        </mxCell>
        <mxCell id="SWUT7TAXa4WQA7VOHfOn-98" value="Attack them again" style="whiteSpace=wrap;html=1;" vertex="1" parent="WIyWlLk6GJQsqaUBKTNV-1">
          <mxGeometry x="740" y="630" width="120" height="60" as="geometry" />
        </mxCell>
        <mxCell id="SWUT7TAXa4WQA7VOHfOn-99" value="" style="edgeStyle=orthogonalEdgeStyle;rounded=0;orthogonalLoop=1;jettySize=auto;html=1;" edge="1" parent="WIyWlLk6GJQsqaUBKTNV-1" source="SWUT7TAXa4WQA7VOHfOn-100" target="SWUT7TAXa4WQA7VOHfOn-103">
          <mxGeometry relative="1" as="geometry" />
        </mxCell>
        <mxCell id="SWUT7TAXa4WQA7VOHfOn-100" value="lose life" style="rhombus;whiteSpace=wrap;html=1;" vertex="1" parent="WIyWlLk6GJQsqaUBKTNV-1">
          <mxGeometry x="760" y="780" width="80" height="80" as="geometry" />
        </mxCell>
        <mxCell id="SWUT7TAXa4WQA7VOHfOn-101" value="" style="edgeStyle=orthogonalEdgeStyle;rounded=0;orthogonalLoop=1;jettySize=auto;html=1;" edge="1" parent="WIyWlLk6GJQsqaUBKTNV-1" source="SWUT7TAXa4WQA7VOHfOn-103" target="SWUT7TAXa4WQA7VOHfOn-104">
          <mxGeometry relative="1" as="geometry" />
        </mxCell>
        <mxCell id="SWUT7TAXa4WQA7VOHfOn-102" value="miss" style="edgeLabel;html=1;align=center;verticalAlign=middle;resizable=0;points=[];" vertex="1" connectable="0" parent="SWUT7TAXa4WQA7VOHfOn-101">
          <mxGeometry x="-0.0381" y="-1" relative="1" as="geometry">
            <mxPoint as="offset" />
          </mxGeometry>
        </mxCell>
        <mxCell id="SWUT7TAXa4WQA7VOHfOn-109" style="edgeStyle=orthogonalEdgeStyle;rounded=0;orthogonalLoop=1;jettySize=auto;html=1;exitX=0;exitY=0.5;exitDx=0;exitDy=0;entryX=1;entryY=1;entryDx=0;entryDy=0;" edge="1" parent="WIyWlLk6GJQsqaUBKTNV-1" source="SWUT7TAXa4WQA7VOHfOn-103" target="SWUT7TAXa4WQA7VOHfOn-89">
          <mxGeometry relative="1" as="geometry" />
        </mxCell>
        <mxCell id="SWUT7TAXa4WQA7VOHfOn-103" value="Attack them third time" style="whiteSpace=wrap;html=1;" vertex="1" parent="WIyWlLk6GJQsqaUBKTNV-1">
          <mxGeometry x="740" y="950" width="120" height="60" as="geometry" />
        </mxCell>
        <mxCell id="SWUT7TAXa4WQA7VOHfOn-110" style="edgeStyle=orthogonalEdgeStyle;rounded=0;orthogonalLoop=1;jettySize=auto;html=1;exitX=1;exitY=0.5;exitDx=0;exitDy=0;" edge="1" parent="WIyWlLk6GJQsqaUBKTNV-1" source="SWUT7TAXa4WQA7VOHfOn-104">
          <mxGeometry relative="1" as="geometry">
            <mxPoint x="880" y="230" as="targetPoint" />
          </mxGeometry>
        </mxCell>
        <mxCell id="SWUT7TAXa4WQA7VOHfOn-104" value="die" style="rhombus;whiteSpace=wrap;html=1;" vertex="1" parent="WIyWlLk6GJQsqaUBKTNV-1">
          <mxGeometry x="760" y="1080" width="80" height="80" as="geometry" />
        </mxCell>
        <mxCell id="SWUT7TAXa4WQA7VOHfOn-107" style="edgeStyle=orthogonalEdgeStyle;rounded=0;orthogonalLoop=1;jettySize=auto;html=1;entryX=0.883;entryY=0.558;entryDx=0;entryDy=0;entryPerimeter=0;" edge="1" parent="WIyWlLk6GJQsqaUBKTNV-1" source="SWUT7TAXa4WQA7VOHfOn-98" target="SWUT7TAXa4WQA7VOHfOn-89">
          <mxGeometry relative="1" as="geometry" />
        </mxCell>
        <mxCell id="SWUT7TAXa4WQA7VOHfOn-108" value="hit" style="edgeLabel;html=1;align=center;verticalAlign=middle;resizable=0;points=[];" vertex="1" connectable="0" parent="SWUT7TAXa4WQA7VOHfOn-107">
          <mxGeometry x="0.2741" y="3" relative="1" as="geometry">
            <mxPoint as="offset" />
          </mxGeometry>
        </mxCell>
        <mxCell id="SWUT7TAXa4WQA7VOHfOn-112" style="edgeStyle=orthogonalEdgeStyle;rounded=0;orthogonalLoop=1;jettySize=auto;html=1;exitX=0;exitY=0.5;exitDx=0;exitDy=0;entryX=1;entryY=0.5;entryDx=0;entryDy=0;" edge="1" parent="WIyWlLk6GJQsqaUBKTNV-1" source="SWUT7TAXa4WQA7VOHfOn-111" target="SWUT7TAXa4WQA7VOHfOn-56">
          <mxGeometry relative="1" as="geometry" />
        </mxCell>
        <mxCell id="SWUT7TAXa4WQA7VOHfOn-111" value="restart" style="rounded=0;whiteSpace=wrap;html=1;" vertex="1" parent="WIyWlLk6GJQsqaUBKTNV-1">
          <mxGeometry x="820" y="170" width="120" height="60" as="geometry" />
        </mxCell>
        <mxCell id="SWUT7TAXa4WQA7VOHfOn-121" value="" style="edgeStyle=orthogonalEdgeStyle;rounded=0;orthogonalLoop=1;jettySize=auto;html=1;" edge="1" parent="WIyWlLk6GJQsqaUBKTNV-1" source="SWUT7TAXa4WQA7VOHfOn-116" target="SWUT7TAXa4WQA7VOHfOn-120">
          <mxGeometry relative="1" as="geometry" />
        </mxCell>
        <mxCell id="SWUT7TAXa4WQA7VOHfOn-116" value="collect coins" style="whiteSpace=wrap;html=1;" vertex="1" parent="WIyWlLk6GJQsqaUBKTNV-1">
          <mxGeometry x="460" y="750" width="120" height="60" as="geometry" />
        </mxCell>
        <mxCell id="SWUT7TAXa4WQA7VOHfOn-123" value="" style="edgeStyle=orthogonalEdgeStyle;rounded=0;orthogonalLoop=1;jettySize=auto;html=1;" edge="1" parent="WIyWlLk6GJQsqaUBKTNV-1" source="SWUT7TAXa4WQA7VOHfOn-120" target="SWUT7TAXa4WQA7VOHfOn-122">
          <mxGeometry relative="1" as="geometry" />
        </mxCell>
        <mxCell id="SWUT7TAXa4WQA7VOHfOn-120" value="interact with Brian" style="whiteSpace=wrap;html=1;" vertex="1" parent="WIyWlLk6GJQsqaUBKTNV-1">
          <mxGeometry x="460" y="890" width="120" height="60" as="geometry" />
        </mxCell>
        <mxCell id="SWUT7TAXa4WQA7VOHfOn-122" value="ignore him" style="rhombus;whiteSpace=wrap;html=1;" vertex="1" parent="WIyWlLk6GJQsqaUBKTNV-1">
          <mxGeometry x="480" y="1020" width="80" height="80" as="geometry" />
        </mxCell>
      </root>
    </mxGraphModel>
  </diagram>
</mxfile>
